<?xml version="1.0" encoding="UTF-8"?>
<svg xmlns="http://www.w3.org/2000/svg" xmlns:xlink="http://www.w3.org/1999/xlink" width="1125pt" height="1124.99995pt" viewBox="0 0 1125 1124.99995" version="1.2">
<defs>
<clipPath id="clip1">
  <path d="M 21.75 10.875 L 1125 10.875 L 1125 1114.125 L 21.75 1114.125 Z M 21.75 10.875 "/>
</clipPath>
</defs>
<g id="surface1">
<g clip-path="url(#clip1)" clip-rule="nonzero">
<path style=" stroke:none;fill-rule:nonzero;fill:rgb(0%,0%,0%);fill-opacity:1;" d="M 346.148438 10.875 C 168.082031 10.875 21.75 157.011719 21.75 335.273438 L 21.75 789.742188 C 21.75 967.804688 167.886719 1114.136719 346.148438 1114.136719 L 800.617188 1114.136719 C 978.679688 1114.136719 1125.011719 968 1125.011719 789.742188 L 1125.011719 335.273438 C 1125.011719 157.207031 978.878906 10.875 800.617188 10.875 Z M 346.148438 111.171875 L 800.617188 111.171875 C 924.613281 111.171875 1024.714844 211.273438 1024.714844 335.273438 L 1024.714844 789.742188 C 1024.714844 913.738281 924.613281 1013.839844 800.617188 1013.839844 L 346.148438 1013.839844 C 222.148438 1013.839844 122.046875 913.738281 122.046875 789.742188 L 122.046875 335.273438 C 122.046875 211.273438 222.148438 111.171875 346.148438 111.171875 Z M 869.570312 220.871094 C 844.300781 220.871094 824.121094 241.046875 824.121094 266.316406 C 824.121094 291.589844 844.300781 311.765625 869.570312 311.765625 C 894.839844 311.765625 915.015625 291.589844 915.015625 266.316406 C 915.015625 241.046875 894.839844 220.871094 869.570312 220.871094 Z M 573.382812 261.617188 C 407.851562 261.617188 272.492188 396.976562 272.492188 562.507812 C 272.492188 728.035156 407.851562 863.394531 573.382812 863.394531 C 738.910156 863.394531 874.269531 728.035156 874.269531 562.507812 C 874.269531 396.976562 738.910156 261.617188 573.382812 261.617188 Z M 573.382812 361.914062 C 684.84375 361.914062 773.972656 451.042969 773.972656 562.507812 C 773.972656 673.96875 684.84375 763.097656 573.382812 763.097656 C 461.917969 763.097656 372.789062 673.96875 372.789062 562.507812 C 372.789062 451.042969 461.917969 361.914062 573.382812 361.914062 Z M 573.382812 361.914062 "/>
</g>
</g>
</svg>
