<?xml version="1.0" encoding="UTF-8"?>
<svg xmlns="http://www.w3.org/2000/svg" xmlns:xlink="http://www.w3.org/1999/xlink" width="1125pt" height="1124.99995pt" viewBox="0 0 1125 1124.99995" version="1.2">
<defs>
<clipPath id="clip1">
  <path d="M 9 17.90625 L 1097 17.90625 L 1097 1105 L 9 1105 Z M 9 17.90625 "/>
</clipPath>
</defs>
<g id="surface1">
<g clip-path="url(#clip1)" clip-rule="nonzero">
<path style=" stroke:none;fill-rule:nonzero;fill:rgb(1.179504%,66.268921%,95.689392%);fill-opacity:1;" d="M 552.742188 17.90625 C 543.847656 17.90625 534.960938 18.125 526.078125 18.5625 C 517.191406 18.996094 508.324219 19.652344 499.472656 20.523438 C 490.621094 21.394531 481.796875 22.480469 473 23.785156 C 464.203125 25.089844 455.441406 26.609375 446.71875 28.339844 C 437.996094 30.074219 429.320312 32.023438 420.691406 34.179688 C 412.0625 36.339844 403.496094 38.710938 394.984375 41.289062 C 386.472656 43.871094 378.03125 46.65625 369.65625 49.652344 C 361.28125 52.644531 352.984375 55.84375 344.769531 59.246094 C 336.550781 62.644531 328.421875 66.246094 320.382812 70.046875 C 312.34375 73.847656 304.398438 77.839844 296.554688 82.03125 C 288.710938 86.21875 280.976562 90.597656 273.347656 95.167969 C 265.71875 99.738281 258.207031 104.492188 250.8125 109.429688 C 243.414062 114.367188 236.144531 119.480469 229.003906 124.777344 C 221.859375 130.070312 214.847656 135.535156 207.972656 141.175781 C 201.097656 146.8125 194.367188 152.617188 187.773438 158.585938 C 181.183594 164.554688 174.746094 170.679688 168.457031 176.964844 C 162.167969 183.25 156.035156 189.683594 150.0625 196.269531 C 144.089844 202.851562 138.28125 209.582031 132.640625 216.449219 C 126.996094 223.320312 121.527344 230.324219 116.230469 237.464844 C 110.929688 244.601562 105.8125 251.867188 100.871094 259.257812 C 95.929688 266.644531 91.171875 274.152344 86.597656 281.777344 C 82.027344 289.398438 77.644531 297.128906 73.449219 304.96875 C 69.257812 312.804688 65.261719 320.742188 61.457031 328.777344 C 57.65625 336.808594 54.050781 344.933594 50.648438 353.144531 C 47.246094 361.355469 44.042969 369.644531 41.046875 378.011719 C 38.050781 386.378906 35.261719 394.816406 32.679688 403.320312 C 30.097656 411.824219 27.726562 420.386719 25.566406 429.011719 C 23.40625 437.632812 21.457031 446.300781 19.722656 455.015625 C 17.988281 463.734375 16.464844 472.488281 15.160156 481.277344 C 13.855469 490.070312 12.769531 498.886719 11.894531 507.734375 C 11.023438 516.578125 10.371094 525.4375 9.933594 534.316406 C 9.496094 543.191406 9.28125 552.074219 9.28125 560.960938 C 9.28125 569.847656 9.496094 578.730469 9.933594 587.609375 C 10.371094 596.484375 11.023438 605.34375 11.894531 614.191406 C 12.769531 623.035156 13.855469 631.851562 15.160156 640.644531 C 16.464844 649.433594 17.988281 658.1875 19.722656 666.90625 C 21.457031 675.621094 23.40625 684.292969 25.566406 692.914062 C 27.726562 701.535156 30.097656 710.097656 32.679688 718.601562 C 35.261719 727.105469 38.050781 735.542969 41.046875 743.910156 C 44.042969 752.277344 47.246094 760.566406 50.648438 768.777344 C 54.050781 776.988281 57.65625 785.113281 61.457031 793.148438 C 65.261719 801.179688 69.257812 809.117188 73.449219 816.957031 C 77.644531 824.792969 82.027344 832.523438 86.597656 840.148438 C 91.171875 847.769531 95.929688 855.277344 100.871094 862.667969 C 105.8125 870.054688 110.929688 877.320312 116.230469 884.457031 C 121.527344 891.597656 126.996094 898.601562 132.640625 905.472656 C 138.28125 912.339844 144.089844 919.070312 150.0625 925.652344 C 156.035156 932.238281 162.167969 938.675781 168.457031 944.957031 C 174.746094 951.242188 181.183594 957.371094 187.773438 963.339844 C 194.367188 969.304688 201.097656 975.109375 207.972656 980.746094 C 214.847656 986.386719 221.859375 991.851562 229.003906 997.148438 C 236.144531 1002.441406 243.414062 1007.558594 250.8125 1012.496094 C 258.207031 1017.433594 265.71875 1022.183594 273.347656 1026.753906 C 280.976562 1031.324219 288.710938 1035.703125 296.554688 1039.894531 C 304.398438 1044.082031 312.34375 1048.078125 320.382812 1051.875 C 328.421875 1055.675781 336.550781 1059.277344 344.769531 1062.679688 C 352.984375 1066.078125 361.28125 1069.277344 369.65625 1072.269531 C 378.03125 1075.265625 386.472656 1078.050781 394.984375 1080.632812 C 403.496094 1083.210938 412.0625 1085.582031 420.691406 1087.742188 C 429.320312 1089.902344 437.996094 1091.847656 446.71875 1093.582031 C 455.441406 1095.316406 464.203125 1096.832031 473 1098.136719 C 481.796875 1099.441406 490.621094 1100.53125 499.472656 1101.402344 C 508.324219 1102.273438 517.191406 1102.925781 526.078125 1103.363281 C 534.960938 1103.796875 543.847656 1104.015625 552.742188 1104.015625 C 561.636719 1104.015625 570.527344 1103.796875 579.410156 1103.363281 C 588.292969 1102.925781 597.160156 1102.273438 606.011719 1101.402344 C 614.863281 1100.53125 623.6875 1099.441406 632.484375 1098.136719 C 641.285156 1096.832031 650.042969 1095.316406 658.765625 1093.582031 C 667.492188 1091.847656 676.164062 1089.902344 684.792969 1087.742188 C 693.421875 1085.582031 701.992188 1083.210938 710.5 1080.632812 C 719.011719 1078.050781 727.457031 1075.265625 735.828125 1072.269531 C 744.203125 1069.277344 752.5 1066.078125 760.71875 1062.679688 C 768.933594 1059.277344 777.0625 1055.675781 785.101562 1051.875 C 793.144531 1048.078125 801.085938 1044.082031 808.929688 1039.890625 C 816.773438 1035.703125 824.511719 1031.324219 832.136719 1026.753906 C 839.765625 1022.183594 847.28125 1017.433594 854.675781 1012.496094 C 862.070312 1007.558594 869.339844 1002.441406 876.484375 997.148438 C 883.628906 991.851562 890.636719 986.386719 897.511719 980.746094 C 904.386719 975.109375 911.121094 969.304688 917.710938 963.339844 C 924.300781 957.371094 930.738281 951.242188 937.03125 944.957031 C 943.320312 938.675781 949.449219 932.238281 955.421875 925.652344 C 961.394531 919.070312 967.203125 912.339844 972.84375 905.472656 C 978.488281 898.601562 983.957031 891.597656 989.257812 884.457031 C 994.554688 877.320312 999.675781 870.054688 1004.617188 862.667969 C 1009.558594 855.277344 1014.3125 847.769531 1018.886719 840.148438 C 1023.460938 832.523438 1027.84375 824.792969 1032.035156 816.957031 C 1036.226562 809.117188 1040.226562 801.179688 1044.027344 793.148438 C 1047.832031 785.113281 1051.433594 776.988281 1054.835938 768.777344 C 1058.242188 760.566406 1061.441406 752.277344 1064.4375 743.910156 C 1067.433594 735.542969 1070.222656 727.105469 1072.804688 718.601562 C 1075.386719 710.097656 1077.757812 701.535156 1079.917969 692.914062 C 1082.082031 684.292969 1084.027344 675.621094 1085.761719 666.90625 C 1087.5 658.1875 1089.019531 649.433594 1090.324219 640.644531 C 1091.628906 631.851562 1092.71875 623.035156 1093.589844 614.191406 C 1094.460938 605.34375 1095.113281 596.484375 1095.550781 587.609375 C 1095.988281 578.730469 1096.207031 569.847656 1096.207031 560.960938 C 1096.207031 552.074219 1095.988281 543.191406 1095.550781 534.316406 C 1095.113281 525.4375 1094.460938 516.578125 1093.589844 507.734375 C 1092.71875 498.886719 1091.628906 490.070312 1090.324219 481.277344 C 1089.019531 472.488281 1087.5 463.734375 1085.761719 455.015625 C 1084.027344 446.300781 1082.082031 437.632812 1079.917969 429.011719 C 1077.757812 420.386719 1075.386719 411.824219 1072.804688 403.320312 C 1070.222656 394.816406 1067.433594 386.378906 1064.4375 378.011719 C 1061.441406 369.644531 1058.242188 361.355469 1054.835938 353.144531 C 1051.433594 344.933594 1047.832031 336.808594 1044.027344 328.777344 C 1040.226562 320.742188 1036.226562 312.804688 1032.035156 304.96875 C 1027.84375 297.128906 1023.460938 289.398438 1018.886719 281.777344 C 1014.3125 274.152344 1009.558594 266.644531 1004.617188 259.257812 C 999.675781 251.867188 994.554688 244.601562 989.257812 237.464844 C 983.957031 230.324219 978.488281 223.320312 972.84375 216.453125 C 967.203125 209.582031 961.394531 202.851562 955.421875 196.269531 C 949.449219 189.683594 943.320312 183.25 937.03125 176.964844 C 930.738281 170.679688 924.300781 164.554688 917.710938 158.585938 C 911.121094 152.617188 904.386719 146.8125 897.511719 141.175781 C 890.636719 135.535156 883.628906 130.070312 876.484375 124.777344 C 869.339844 119.480469 862.070312 114.367188 854.675781 109.429688 C 847.28125 104.492188 839.765625 99.738281 832.136719 95.167969 C 824.511719 90.597656 816.773438 86.21875 808.929688 82.03125 C 801.085938 77.839844 793.144531 73.847656 785.101562 70.046875 C 777.0625 66.246094 768.933594 62.644531 760.71875 59.246094 C 752.5 55.84375 744.203125 52.644531 735.828125 49.652344 C 727.457031 46.65625 719.011719 43.871094 710.5 41.289062 C 701.992188 38.710938 693.421875 36.339844 684.792969 34.179688 C 676.164062 32.023438 667.492188 30.074219 658.765625 28.339844 C 650.042969 26.609375 641.285156 25.089844 632.484375 23.785156 C 623.6875 22.480469 614.863281 21.394531 606.011719 20.523438 C 597.160156 19.652344 588.292969 18.996094 579.410156 18.5625 C 570.527344 18.125 561.636719 17.90625 552.742188 17.90625 Z M 552.742188 17.90625 "/>
</g>
<path style=" stroke:none;fill-rule:nonzero;fill:rgb(100%,100%,100%);fill-opacity:1;" d="M 878.820312 374.152344 C 854.855469 384.765625 824.5 394.730469 797.300781 398.046875 C 824.964844 381.644531 868.847656 347.488281 878.820312 316.585938 C 852.980469 331.765625 806.242188 347.976562 775.753906 353.839844 C 751.40625 328.046875 716.679688 316.585938 678.203125 316.585938 C 604.289062 316.585938 552.742188 379.171875 552.742188 452.351562 L 552.742188 506.65625 C 444.050781 506.65625 338.074219 423.921875 272.125 343.738281 C 260.523438 363.316406 254 386.234375 254 410.453125 C 254 459.84375 299.40625 509.96875 335.359375 533.808594 C 313.429688 533.128906 271.90625 516.402344 253.839844 506.65625 C 253.839844 507.089844 253.839844 507.632812 253.839844 508.203125 C 253.839844 572.472656 298.972656 616.109375 360.140625 628.273438 C 348.972656 631.339844 335.359375 642.417969 282.96875 642.417969 C 299.976562 694.960938 385.492188 722.738281 444.050781 723.878906 C 398.234375 759.367188 316.554688 778.183594 253.839844 778.183594 C 242.996094 778.183594 237.125 778.78125 226.664062 777.558594 C 285.847656 815.027344 368.507812 832.488281 444.050781 832.488281 C 690.15625 832.488281 824.472656 644.644531 824.472656 469.457031 C 824.472656 463.699219 824.285156 444.421875 823.984375 438.773438 C 850.289062 420.257812 860.941406 400.867188 878.820312 374.152344 "/>
</g>
</svg>
