<?xml version="1.0" encoding="UTF-8"?>
<svg xmlns="http://www.w3.org/2000/svg" xmlns:xlink="http://www.w3.org/1999/xlink" width="1125pt" height="1124.99995pt" viewBox="0 0 1125 1124.99995" version="1.2">
<defs>
<clipPath id="clip1">
  <path d="M 12 12.203125 L 1111 12.203125 L 1111 1110 L 12 1110 Z M 12 12.203125 "/>
</clipPath>
</defs>
<g id="surface1">
<g clip-path="url(#clip1)" clip-rule="nonzero">
<path style=" stroke:none;fill-rule:nonzero;fill:rgb(1.179504%,60.778809%,89.7995%);fill-opacity:1;" d="M 561.289062 12.203125 C 552.300781 12.203125 543.320312 12.421875 534.347656 12.863281 C 525.371094 13.304688 516.410156 13.964844 507.46875 14.84375 C 498.527344 15.726562 489.609375 16.824219 480.722656 18.140625 C 471.832031 19.457031 462.980469 20.992188 454.167969 22.742188 C 445.355469 24.496094 436.589844 26.460938 427.875 28.640625 C 419.15625 30.824219 410.5 33.214844 401.902344 35.820312 C 393.300781 38.429688 384.769531 41.242188 376.3125 44.265625 C 367.851562 47.292969 359.46875 50.519531 351.167969 53.957031 C 342.863281 57.390625 334.652344 61.027344 326.527344 64.867188 C 318.40625 68.703125 310.382812 72.738281 302.457031 76.972656 C 294.53125 81.203125 286.714844 85.625 279.007812 90.242188 C 271.300781 94.855469 263.710938 99.65625 256.238281 104.644531 C 248.769531 109.632812 241.421875 114.800781 234.207031 120.144531 C 226.988281 125.492188 219.90625 131.015625 212.960938 136.710938 C 206.011719 142.40625 199.210938 148.265625 192.554688 154.292969 C 185.894531 160.324219 179.390625 166.511719 173.035156 172.859375 C 166.679688 179.207031 160.488281 185.707031 154.453125 192.355469 C 148.417969 199.007812 142.550781 205.804688 136.847656 212.742188 C 131.148438 219.683594 125.621094 226.757812 120.269531 233.96875 C 114.914062 241.175781 109.742188 248.515625 104.75 255.976562 C 99.757812 263.441406 94.953125 271.023438 90.332031 278.722656 C 85.710938 286.421875 81.285156 294.230469 77.050781 302.148438 C 72.8125 310.066406 68.773438 318.082031 64.933594 326.195312 C 61.089844 334.3125 57.449219 342.515625 54.011719 350.808594 C 50.570312 359.101562 47.339844 367.476562 44.3125 375.925781 C 41.285156 384.378906 38.464844 392.898438 35.859375 401.492188 C 33.25 410.082031 30.855469 418.730469 28.671875 427.4375 C 26.488281 436.144531 24.519531 444.902344 22.765625 453.707031 C 21.011719 462.511719 19.476562 471.351562 18.15625 480.230469 C 16.839844 489.113281 15.738281 498.019531 14.859375 506.953125 C 13.976562 515.886719 13.316406 524.835938 12.875 533.800781 C 12.4375 542.765625 12.214844 551.738281 12.214844 560.714844 C 12.214844 569.691406 12.4375 578.664062 12.875 587.628906 C 13.316406 596.59375 13.976562 605.546875 14.859375 614.480469 C 15.738281 623.414062 16.839844 632.320312 18.15625 641.199219 C 19.476562 650.078125 21.011719 658.921875 22.765625 667.722656 C 24.519531 676.527344 26.488281 685.285156 28.671875 693.992188 C 30.855469 702.699219 33.25 711.347656 35.859375 719.941406 C 38.464844 728.53125 41.285156 737.050781 44.3125 745.503906 C 47.339844 753.957031 50.570312 762.328125 54.011719 770.621094 C 57.449219 778.914062 61.089844 787.117188 64.933594 795.234375 C 68.773438 803.347656 72.8125 811.363281 77.050781 819.28125 C 81.285156 827.199219 85.710938 835.007812 90.332031 842.707031 C 94.953125 850.40625 99.757812 857.988281 104.75 865.453125 C 109.742188 872.914062 114.914062 880.253906 120.269531 887.464844 C 125.621094 894.671875 131.148438 901.75 136.847656 908.6875 C 142.550781 915.625 148.417969 922.421875 154.453125 929.074219 C 160.488281 935.722656 166.679688 942.222656 173.035156 948.570312 C 179.390625 954.917969 185.894531 961.105469 192.554688 967.136719 C 199.210938 973.164062 206.011719 979.027344 212.960938 984.71875 C 219.90625 990.414062 226.988281 995.9375 234.207031 1001.285156 C 241.421875 1006.632812 248.769531 1011.796875 256.238281 1016.785156 C 263.710938 1021.773438 271.300781 1026.574219 279.007812 1031.1875 C 286.714844 1035.804688 294.53125 1040.226562 302.457031 1044.460938 C 310.382812 1048.691406 318.40625 1052.726562 326.527344 1056.5625 C 334.652344 1060.402344 342.863281 1064.039062 351.167969 1067.472656 C 359.46875 1070.910156 367.851562 1074.140625 376.3125 1077.164062 C 384.769531 1080.1875 393.300781 1083.003906 401.902344 1085.609375 C 410.5 1088.214844 419.15625 1090.605469 427.875 1092.789062 C 436.589844 1094.96875 445.355469 1096.9375 454.167969 1098.6875 C 462.980469 1100.4375 471.832031 1101.972656 480.722656 1103.289062 C 489.609375 1104.605469 498.527344 1105.707031 507.46875 1106.585938 C 516.410156 1107.464844 525.371094 1108.125 534.347656 1108.566406 C 543.320312 1109.007812 552.300781 1109.226562 561.289062 1109.226562 C 570.273438 1109.226562 579.253906 1109.007812 588.230469 1108.566406 C 597.203125 1108.125 606.164062 1107.464844 615.105469 1106.585938 C 624.050781 1105.707031 632.964844 1104.605469 641.851562 1103.289062 C 650.742188 1101.972656 659.59375 1100.4375 668.40625 1098.6875 C 677.21875 1096.9375 685.984375 1094.96875 694.703125 1092.789062 C 703.417969 1090.605469 712.074219 1088.214844 720.675781 1085.609375 C 729.273438 1083.003906 737.804688 1080.1875 746.265625 1077.164062 C 754.726562 1074.140625 763.105469 1070.910156 771.410156 1067.472656 C 779.710938 1064.039062 787.921875 1060.402344 796.046875 1056.5625 C 804.167969 1052.726562 812.195312 1048.691406 820.117188 1044.460938 C 828.042969 1040.226562 835.859375 1035.804688 843.566406 1031.1875 C 851.273438 1026.574219 858.863281 1021.773438 866.335938 1016.785156 C 873.808594 1011.796875 881.152344 1006.632812 888.371094 1001.285156 C 895.585938 995.9375 902.667969 990.414062 909.617188 984.71875 C 916.5625 979.027344 923.363281 973.164062 930.023438 967.136719 C 936.679688 961.105469 943.1875 954.917969 949.539062 948.570312 C 955.894531 942.222656 962.089844 935.722656 968.125 929.074219 C 974.160156 922.421875 980.027344 915.625 985.726562 908.6875 C 991.425781 901.75 996.953125 894.671875 1002.308594 887.464844 C 1007.660156 880.253906 1012.832031 872.914062 1017.824219 865.453125 C 1022.816406 857.988281 1027.625 850.40625 1032.242188 842.707031 C 1036.863281 835.007812 1041.289062 827.199219 1045.527344 819.28125 C 1049.761719 811.363281 1053.800781 803.347656 1057.644531 795.234375 C 1061.484375 787.117188 1065.125 778.914062 1068.566406 770.621094 C 1072.003906 762.328125 1075.238281 753.953125 1078.265625 745.503906 C 1081.292969 737.050781 1084.109375 728.53125 1086.71875 719.941406 C 1089.324219 711.347656 1091.722656 702.699219 1093.90625 693.992188 C 1096.089844 685.285156 1098.058594 676.527344 1099.808594 667.722656 C 1101.5625 658.921875 1103.097656 650.078125 1104.417969 641.199219 C 1105.734375 632.320312 1106.835938 623.414062 1107.714844 614.480469 C 1108.597656 605.546875 1109.257812 596.59375 1109.699219 587.628906 C 1110.140625 578.664062 1110.359375 569.691406 1110.359375 560.714844 C 1110.359375 551.738281 1110.140625 542.765625 1109.699219 533.800781 C 1109.257812 524.835938 1108.597656 515.886719 1107.714844 506.953125 C 1106.835938 498.019531 1105.734375 489.113281 1104.417969 480.230469 C 1103.097656 471.351562 1101.5625 462.511719 1099.808594 453.707031 C 1098.058594 444.902344 1096.089844 436.144531 1093.90625 427.4375 C 1091.722656 418.730469 1089.324219 410.082031 1086.71875 401.492188 C 1084.109375 392.898438 1081.292969 384.378906 1078.265625 375.925781 C 1075.238281 367.476562 1072.003906 359.101562 1068.566406 350.808594 C 1065.125 342.515625 1061.484375 334.3125 1057.644531 326.195312 C 1053.800781 318.082031 1049.761719 310.066406 1045.527344 302.148438 C 1041.289062 294.230469 1036.863281 286.421875 1032.242188 278.722656 C 1027.625 271.023438 1022.816406 263.441406 1017.824219 255.976562 C 1012.832031 248.515625 1007.660156 241.175781 1002.308594 233.96875 C 996.953125 226.757812 991.425781 219.683594 985.726562 212.742188 C 980.027344 205.804688 974.160156 199.007812 968.125 192.355469 C 962.089844 185.707031 955.894531 179.207031 949.539062 172.859375 C 943.1875 166.511719 936.679688 160.324219 930.023438 154.292969 C 923.363281 148.265625 916.5625 142.40625 909.617188 136.710938 C 902.667969 131.015625 895.585938 125.492188 888.371094 120.144531 C 881.152344 114.800781 873.808594 109.632812 866.335938 104.644531 C 858.863281 99.65625 851.273438 94.855469 843.566406 90.242188 C 835.859375 85.625 828.042969 81.203125 820.117188 76.972656 C 812.195312 72.738281 804.167969 68.703125 796.046875 64.867188 C 787.921875 61.027344 779.710938 57.390625 771.410156 53.957031 C 763.105469 50.519531 754.726562 47.292969 746.265625 44.265625 C 737.804688 41.242188 729.273438 38.429688 720.675781 35.820312 C 712.074219 33.214844 703.417969 30.824219 694.703125 28.640625 C 685.984375 26.460938 677.21875 24.496094 668.40625 22.742188 C 659.59375 20.992188 650.742188 19.457031 641.851562 18.140625 C 632.964844 16.824219 624.050781 15.726562 615.105469 14.84375 C 606.164062 13.964844 597.203125 13.304688 588.230469 12.863281 C 579.253906 12.421875 570.273438 12.203125 561.289062 12.203125 Z M 561.289062 12.203125 "/>
</g>
<path style=" stroke:none;fill-rule:nonzero;fill:rgb(100%,100%,100%);fill-opacity:1;" d="M 635.613281 706.097656 L 777.710938 706.097656 L 800.019531 561.898438 L 635.585938 561.898438 L 635.585938 483.085938 C 635.585938 423.183594 655.179688 370.0625 711.269531 370.0625 L 801.40625 370.0625 L 801.40625 244.222656 C 785.570312 242.085938 752.074219 237.410156 688.789062 237.410156 C 556.636719 237.410156 479.160156 307.128906 479.160156 465.96875 L 479.160156 561.898438 L 343.304688 561.898438 L 343.304688 706.097656 L 479.160156 706.097656 L 479.160156 1102.441406 C 506.0625 1106.484375 533.3125 1109.226562 561.289062 1109.226562 C 586.574219 1109.226562 611.253906 1106.917969 635.613281 1103.625 Z M 635.613281 706.097656 "/>
</g>
</svg>
