<?xml version="1.0" encoding="UTF-8"?>
<svg xmlns="http://www.w3.org/2000/svg" xmlns:xlink="http://www.w3.org/1999/xlink" width="30pt" height="30.000001pt" viewBox="0 0 30 30.000001" version="1.2">
<defs>
<clipPath id="clip1">
  <path d="M 10 0.671875 L 22 0.671875 L 22 15 L 10 15 Z M 10 0.671875 "/>
</clipPath>
<clipPath id="clip2">
  <path d="M 5.570312 14 L 26.617188 14 L 26.617188 28.253906 L 5.570312 28.253906 Z M 5.570312 14 "/>
</clipPath>
</defs>
<g id="surface1">
<g clip-path="url(#clip1)" clip-rule="nonzero">
<path style=" stroke:none;fill-rule:nonzero;fill:rgb(41.958618%,80.778503%,81.959534%);fill-opacity:1;" d="M 16.09375 14.160156 C 19.171875 14.160156 21.664062 11.144531 21.664062 7.421875 C 21.664062 3.699219 20.847656 0.683594 16.09375 0.683594 C 11.339844 0.683594 10.523438 3.699219 10.523438 7.421875 C 10.523438 11.144531 13.015625 14.160156 16.09375 14.160156 Z M 16.09375 14.160156 "/>
</g>
<g clip-path="url(#clip2)" clip-rule="nonzero">
<path style=" stroke:none;fill-rule:nonzero;fill:rgb(41.958618%,80.778503%,81.959534%);fill-opacity:1;" d="M 26.605469 24.179688 C 26.5 17.695312 25.652344 15.847656 19.144531 14.679688 C 19.144531 14.679688 18.230469 15.839844 16.09375 15.839844 C 13.960938 15.839844 13.042969 14.679688 13.042969 14.679688 C 6.605469 15.835938 5.703125 17.65625 5.585938 23.96875 C 5.578125 24.484375 5.570312 24.507812 5.570312 24.449219 C 5.570312 24.5625 5.570312 24.769531 5.570312 25.132812 C 5.570312 25.132812 7.121094 28.242188 16.09375 28.242188 C 25.066406 28.242188 26.617188 25.132812 26.617188 25.132812 C 26.617188 24.898438 26.617188 24.738281 26.617188 24.628906 C 26.613281 24.664062 26.613281 24.59375 26.605469 24.175781 Z M 26.605469 24.179688 "/>
</g>
</g>
</svg>
